# xmcd
#
# Track frame offsets: 
#        180
#        39652
#        81939
#        97018
#        126012
#        168671
#        208051
#
# Disc length: 4041 seconds
#
# Revision: 9
# Processed by: cddbd v1.5.2PL0 Copyright (c) Steve Scherf et al.
# Submitted via: ExactAudioCopy v0.99pb4
#
DISCID=5f0fc707
DTITLE=Alban Berg Quartett - Ludwig van Beethoven - Die sämtlichen Str
DTITLE=eichquartette
DYEAR=1999
DGENRE=Chamber Music
TTITLE0=Op.18 Nr.1 F-dur - I:   Allegro con brio
TTITLE1=Op.18 Nr.1 F-dur - II:  Adagio affettuoso ed appassionato
TTITLE2=Op.18 Nr.1 F-dur - III:  Scherzo (Allegro molto) and Trio
TTITLE3=Op.18 Nr.1 F-dur - IV:  Allegro
TTITLE4=Op.59 Nr.1 F-dur - I:   Allegro
TTITLE5=Op.59 Nr.1 F-dur - II:  Allegretto vivace e sempre scherzando
TTITLE6=Op.59 Nr.1 F-dur - III:  Adagio molto e mesto IV: Allegro (Thè
TTITLE6=me russe)
EXTD=
EXTT0=
EXTT1=
EXTT2=
EXTT3=
EXTT4=
EXTT5=
EXTT6=
PLAYORDER=
